<svg width="170" height="170" viewBox="0 0 170 170" fill="none" xmlns="http://www.w3.org/2000/svg">
<g clip-path="url(#clip0)">
<path d="M170 85C170.015 96.5064 167.686 107.895 163.155 118.472L162.873 119.121C155.208 136.558 141.917 150.921 125.126 159.914C108.335 168.907 89.0131 172.009 70.2507 168.725C69.7402 168.634 69.2306 168.541 68.7218 168.443C63.4641 167.424 58.3157 165.906 53.3463 163.909C52.5391 163.585 51.7377 163.249 50.9422 162.901C50.399 162.664 49.8558 162.42 49.3176 162.169C34.5958 155.346 22.1315 144.456 13.3936 130.784C4.65576 117.111 0.00864248 101.226 0 85C0 38.0564 38.0564 0 85 0C131.944 0 170 38.0564 170 85Z" fill="#54B3AE"/>
<path opacity="0.2" d="M70.2507 168.725C69.7402 168.634 69.2306 168.541 68.7217 168.443C68.3898 158.809 67.2506 139.035 63.3652 118.326C61.2402 106.992 58.2904 95.3735 54.1988 84.9874C52.7971 81.3937 51.196 77.8809 49.4031 74.4655C45.2688 66.6571 40.2543 60.0834 34.1735 55.6297L35.0688 54.4075C40.126 58.1143 44.6711 63.3183 48.704 70.0194C49.9136 72.0262 51.0754 74.1671 52.1895 76.4421C53.384 78.8765 54.5232 81.4608 55.6071 84.1952C56.2987 85.9355 56.9668 87.7361 57.6114 89.597C60.4179 97.6771 62.8036 106.896 64.7685 117.255C65.2036 119.543 65.6177 121.888 66.0108 124.289C69.0562 142.891 69.9741 160.089 70.2507 168.725Z" fill="black"/>
<path opacity="0.2" d="M50.9421 162.901C50.3989 162.664 49.8557 162.42 49.3176 162.169C48.792 156.46 47.8263 149.379 46.0609 142.657C45.2877 139.638 44.2951 136.679 43.091 133.805C41.0766 129.089 38.4688 125.081 35.0964 122.609L35.9917 121.389C39.5225 123.974 42.246 128.061 44.3509 132.841C46.7223 138.228 48.3041 144.497 49.3578 150.488C50.1399 154.936 50.6328 159.234 50.9421 162.901Z" fill="black"/>
<path opacity="0.2" d="M25.7167 55.5946C29.8957 55.5946 33.2834 52.2069 33.2834 48.028C33.2834 43.849 29.8957 40.4613 25.7167 40.4613C21.5378 40.4613 18.1501 43.849 18.1501 48.028C18.1501 52.2069 21.5378 55.5946 25.7167 55.5946Z" fill="black"/>
<path opacity="0.2" d="M28.1535 120.73C32.3324 120.73 35.7201 117.342 35.7201 113.163C35.7201 108.984 32.3324 105.597 28.1535 105.597C23.9745 105.597 20.5868 108.984 20.5868 113.163C20.5868 117.342 23.9745 120.73 28.1535 120.73Z" fill="black"/>
<path opacity="0.2" d="M55.7566 60.7377C54.1521 69.7902 57.6942 77.9872 57.6942 77.9872C57.6942 77.9872 63.8377 71.507 65.4423 62.4544C67.0468 53.4018 63.5047 45.2049 63.5047 45.2049C63.5047 45.2049 57.3612 51.6851 55.7566 60.7377Z" fill="black"/>
<path opacity="0.2" d="M30.6095 82.2265C39.244 85.3838 47.9205 83.3576 47.9205 83.3576C47.9205 83.3576 42.5976 76.2124 33.9631 73.0551C25.3286 69.8977 16.6521 71.9239 16.6521 71.9239C16.6521 71.9239 21.9749 79.0692 30.6095 82.2265Z" fill="black"/>
<path opacity="0.2" d="M29.1453 139.906C35.1974 142.119 41.2875 140.676 41.2875 140.676C41.2875 140.676 37.5652 135.644 31.5131 133.431C25.461 131.218 19.3709 132.661 19.3709 132.661C19.3709 132.661 23.0932 137.693 29.1453 139.906Z" fill="black"/>
<path d="M84.8255 103.823C103.127 103.823 117.963 88.9868 117.963 70.6855C117.963 52.3842 103.127 37.548 84.8255 37.548C66.5242 37.548 51.688 52.3842 51.688 70.6855C51.688 88.9868 66.5242 103.823 84.8255 103.823Z" fill="#D0CDE1"/>
<path d="M71.8812 96.0564C71.8812 96.0564 76.0233 115.732 76.0233 117.803C76.0233 119.874 95.6987 129.194 95.6987 129.194L113.303 126.087L119.516 107.447C119.516 107.447 109.161 91.9142 109.161 85.7009L71.8812 96.0564Z" fill="#D0CDE1"/>
<path d="M163.155 118.472L162.873 119.121C155.208 136.558 141.917 150.922 125.126 159.914C108.335 168.907 89.0131 172.009 70.2507 168.725C69.7402 168.634 69.2306 168.541 68.7218 168.443C63.4641 167.424 58.3157 165.906 53.3463 163.909C52.5391 163.585 51.7377 163.249 50.9422 162.901C50.399 162.664 49.8558 162.42 49.3176 162.169C44.4396 159.909 39.7873 157.191 35.4234 154.051L31.4953 142.657L33.7033 140.972L38.245 137.504L43.091 133.805L44.3509 132.841L63.3652 118.326L64.7685 117.255L74.6516 109.71L74.6541 109.708C74.6541 109.708 85.342 127.123 100.876 121.945C116.41 116.767 116.07 101.92 116.07 101.92L163.155 118.472Z" fill="#2F2E41"/>
<path d="M56.0888 43.9878C56.0888 43.9878 66.6098 21.1922 86.7751 26.4527C106.94 31.7133 118.338 39.604 119.215 47.4948C120.092 55.3856 118.777 67.2217 118.777 67.2217C118.777 67.2217 116.585 51.0018 102.557 54.5088C88.5286 58.0158 66.6098 55.3856 66.6098 55.3856L63.1028 86.9486C63.1028 86.9486 59.1574 81.2497 54.7737 84.7567C50.3899 88.2637 42.0608 51.0018 56.0888 43.9878Z" fill="#2F2E41"/>
<path d="M53.3463 163.909C52.539 163.585 51.7377 163.249 50.9422 162.901C50.399 162.664 49.8558 162.42 49.3176 162.169C41.2499 158.428 33.8176 153.447 27.2905 147.407C29.6016 144.259 31.4953 142.657 31.4953 142.657H47.0291L49.3578 150.488L53.3463 163.909Z" fill="#2F2E41"/>
<path d="M149.547 116.767L162.873 119.121C159.307 127.245 154.491 134.76 148.599 141.394L149.547 116.767Z" fill="#2F2E41"/>
</g>
<defs>
<clipPath id="clip0">
<rect width="170" height="170" fill="white"/>
</clipPath>
</defs>
</svg>
