<svg width="200" height="200" viewBox="0 0 200 200" fill="none" xmlns="http://www.w3.org/2000/svg">
<g clip-path="url(#clip0)">
<path d="M200 100C200.015 112.846 197.549 125.575 192.736 137.485C192.725 137.512 192.716 137.536 192.704 137.562V137.565C189.469 145.54 185.213 153.063 180.044 159.944C179.047 161.275 178.018 162.579 176.958 163.855C176.571 164.322 176.177 164.787 175.784 165.246C173.757 167.598 171.625 169.851 169.387 172.006C168.867 172.509 168.34 173.006 167.807 173.497C167.683 173.612 167.559 173.725 167.435 173.84C164.828 176.222 162.098 178.464 159.254 180.556C157.346 181.967 155.387 183.308 153.378 184.577C152.938 184.858 152.494 185.134 152.047 185.405C151.272 185.879 150.49 186.341 149.701 186.793C148.671 187.385 147.629 187.958 146.574 188.512C146.148 188.74 145.719 188.959 145.29 189.178C144.662 189.5 144.032 189.811 143.396 190.115C143.287 190.169 143.177 190.222 143.068 190.272C142.654 190.473 142.233 190.669 141.813 190.864C136.342 193.387 130.652 195.407 124.813 196.896C124.781 196.905 124.751 196.911 124.719 196.92C124.337 197.018 123.952 197.112 123.568 197.204C123.281 197.275 122.991 197.343 122.701 197.408C122.665 197.42 122.628 197.429 122.591 197.435C121.997 197.574 121.402 197.707 120.801 197.828C120.464 197.899 120.127 197.97 119.79 198.038C119.585 198.083 119.378 198.121 119.174 198.16C118.917 198.21 118.662 198.257 118.405 198.308C118.263 198.337 118.121 198.361 117.976 198.385C117.651 198.444 117.325 198.503 117.003 198.559C116.452 198.654 115.896 198.746 115.343 198.828C114.94 198.891 114.541 198.95 114.139 199.006C113.665 199.074 113.192 199.136 112.716 199.195C112.585 199.216 112.455 199.231 112.325 199.246C112.156 199.266 111.988 199.287 111.819 199.308C111.479 199.349 111.139 199.388 110.796 199.423C110.618 199.444 110.443 199.462 110.266 199.479C109.929 199.515 109.591 199.547 109.254 199.577C108.819 199.618 108.384 199.654 107.946 199.689C107.414 199.731 106.884 199.769 106.349 199.802C106.006 199.822 105.662 199.843 105.316 199.861C104.435 199.908 103.553 199.941 102.665 199.965C102.225 199.976 101.781 199.985 101.337 199.991H101.328C100.887 199.997 100.443 200 99.9997 200C95.5023 200.002 91.0099 199.701 86.5529 199.101C83.2837 198.663 80.0667 198.069 76.902 197.32C76.7748 197.29 76.6476 197.26 76.5233 197.228C76.2038 197.154 75.8872 197.074 75.5707 196.994C75.2896 196.923 75.0115 196.849 74.7304 196.775C67.4868 194.89 60.4796 192.192 53.8428 188.731C53.8103 188.713 53.7748 188.695 53.7423 188.678C53.5499 188.577 53.3606 188.479 53.1712 188.376C52.7541 188.157 52.3389 187.934 51.9257 187.707C49.5736 186.414 47.2817 185.032 45.0499 183.559C44.476 183.183 43.9079 182.802 43.3458 182.414C43.1653 182.29 42.9878 182.166 42.8103 182.041C42.6239 181.911 42.4375 181.781 42.2541 181.651C41.7659 181.305 41.2807 180.955 40.7985 180.601C38.8014 179.133 36.8636 177.594 34.9849 175.982C28.3258 170.279 22.4416 163.73 17.4819 156.5C15.7511 153.979 14.1357 151.378 12.6357 148.695C4.32303 133.814 -0.0280097 117.046 -0.000357295 100C-0.000357295 44.7722 44.7718 0 99.9997 0C155.227 0 200 44.7722 200 100Z" fill="#54B3AE"/>
<path opacity="0.2" d="M116.08 197.228C116.399 197.154 116.716 197.074 117.033 196.994C117.314 196.923 117.592 196.849 117.873 196.775C117.888 196.186 117.908 195.539 117.929 194.837C118.104 189.346 118.515 180.506 119.485 169.855C119.538 169.284 119.592 168.709 119.645 168.13C119.991 164.521 120.396 160.725 120.882 156.79C120.896 156.66 120.914 156.533 120.929 156.402C121.322 153.213 121.769 149.938 122.272 146.601C122.624 144.266 123.005 141.906 123.414 139.521C123.444 139.355 123.473 139.186 123.503 139.021C123.621 138.331 123.743 137.645 123.867 136.953C124.213 135.027 124.583 133.089 124.97 131.151C126.334 124.334 127.959 117.476 129.896 110.805C131.865 103.886 134.289 97.1047 137.154 90.506C139.375 85.3799 142.022 80.4485 145.065 75.7634C145.109 75.6953 145.154 75.6302 145.198 75.5622C149.089 69.7012 153.535 64.7278 158.612 61.0089L157.559 59.571C152.695 63.1361 148.234 67.8797 144.174 73.8018C144.154 73.8314 144.136 73.858 144.115 73.8876C141.063 78.4141 138.399 83.1904 136.151 88.1657C133.141 94.8207 130.602 101.679 128.553 108.689C126.612 115.204 124.872 122.262 123.331 129.864C122.79 132.541 122.273 135.285 121.781 138.095C121.698 138.574 121.615 139.053 121.533 139.536C121.533 139.541 121.53 139.55 121.53 139.556C121.402 140.296 121.281 141.036 121.157 141.784C120.849 143.669 120.559 145.539 120.287 147.394C119.867 150.252 119.487 153.06 119.148 155.82C119.035 156.731 118.927 157.635 118.822 158.533C118.675 159.799 118.534 161.048 118.402 162.281C118.216 163.997 118.045 165.677 117.89 167.32L117.846 167.772C117.822 168.033 117.799 168.293 117.775 168.55C116.574 181.506 116.198 191.97 116.08 197.228Z" fill="black"/>
<path opacity="0.2" d="M138.76 188.731C138.793 188.713 138.828 188.695 138.861 188.677C139.47 188.361 140.074 188.038 140.678 187.707C140.876 185.346 141.142 182.751 141.491 180.023C141.565 179.461 141.639 178.89 141.722 178.316C141.763 178.009 141.808 177.698 141.852 177.384C142.201 174.982 142.615 172.503 143.112 170.012C145.133 159.846 148.488 149.455 154.059 143.041C154.358 142.695 154.663 142.364 154.979 142.041C155.764 141.226 156.616 140.479 157.527 139.807L156.473 138.373C155.202 139.313 154.032 140.383 152.982 141.565C152.612 141.976 152.251 142.404 151.899 142.849C146.772 149.302 143.571 158.855 141.577 168.313C141.056 170.781 140.618 173.245 140.246 175.645C140.151 176.272 140.06 176.893 139.973 177.509C139.396 181.574 139.015 185.414 138.76 188.731Z" fill="black"/>
<path opacity="0.2" d="M168.562 60.9679C173.478 60.9679 177.464 56.9824 177.464 52.066C177.464 47.1496 173.478 43.1641 168.562 43.1641C163.645 43.1641 159.66 47.1496 159.66 52.066C159.66 56.9824 163.645 60.9679 168.562 60.9679Z" fill="black"/>
<path opacity="0.2" d="M165.695 137.597C170.611 137.597 174.597 133.612 174.597 128.695C174.597 123.779 170.611 119.793 165.695 119.793C160.778 119.793 156.793 123.779 156.793 128.695C156.793 133.612 160.778 137.597 165.695 137.597Z" fill="black"/>
<path opacity="0.2" d="M133.221 67.0182C135.108 77.6683 130.941 87.3118 130.941 87.3118C130.941 87.3118 123.713 79.688 121.826 69.0379C119.938 58.3879 124.105 48.7444 124.105 48.7444C124.105 48.7444 131.333 56.3681 133.221 67.0182Z" fill="black"/>
<path opacity="0.2" d="M162.805 92.299C152.647 96.0135 142.439 93.6298 142.439 93.6298C142.439 93.6298 148.702 85.2237 158.86 81.5091C169.018 77.7946 179.226 80.1784 179.226 80.1784C179.226 80.1784 172.964 88.5845 162.805 92.299Z" fill="black"/>
<path opacity="0.2" d="M164.528 160.158C157.408 162.761 150.243 161.063 150.243 161.063C150.243 161.063 154.622 155.143 161.742 152.54C168.862 149.936 176.027 151.635 176.027 151.635C176.027 151.635 171.648 157.554 164.528 160.158Z" fill="black"/>
<path d="M130.166 158.66L130.527 158.846C130.491 159.231 130.405 159.468 130.166 158.66Z" fill="#2F2E41"/>
<path d="M130.642 158.784C130.645 158.825 130.651 158.87 130.654 158.911L130.527 158.846C130.53 158.808 130.533 158.766 130.538 158.725C130.568 158.207 130.533 157.595 130.642 158.784Z" fill="#2F2E41"/>
<path d="M92.2138 144.63C119.045 144.63 140.796 122.879 140.796 96.0476C140.796 69.2162 119.045 47.4651 92.2138 47.4651C65.3824 47.4651 43.6313 69.2162 43.6313 96.0476C43.6313 122.879 65.3824 144.63 92.2138 144.63Z" fill="#2F2E41"/>
<path d="M96.2131 142.65C112.462 142.65 125.635 129.478 125.635 113.229C125.635 96.9795 112.462 83.8071 96.2131 83.8071C79.9641 83.8071 66.7917 96.9795 66.7917 113.229C66.7917 129.478 79.9641 142.65 96.2131 142.65Z" fill="#D0CDE1"/>
<path d="M163.393 169.618L163.358 169.627L156.515 171.269L142.266 174.689L140.322 175.157L118.654 180.355L116.814 180.799L64.2426 193.414C60.6888 192.055 57.2165 190.491 53.8432 188.731C53.8107 188.713 53.7752 188.695 53.7426 188.678C53.5503 188.577 53.361 188.479 53.1716 188.376C52.7544 188.157 52.3393 187.934 51.926 187.707C49.574 186.414 47.2821 185.032 45.0503 183.559C44.4763 183.184 43.9083 182.802 43.3462 182.414C43.1657 182.29 42.9882 182.166 42.8107 182.042C42.6243 181.911 42.4379 181.781 42.2545 181.651C41.7663 181.305 41.2811 180.955 40.7988 180.601C45.9053 171.32 58.0651 165.151 70.2249 161.775C79.4024 159.225 81.4201 150.843 81.2456 143.385C81.2012 141.683 81.057 139.986 80.8136 138.302C80.4429 135.621 79.8531 132.975 79.0503 130.391L108.473 131.373L111.509 138.367C111.426 139.135 111.399 139.908 111.429 140.681C111.66 146.417 115.201 150.127 119.571 152.521C120.139 152.831 120.722 153.121 121.314 153.391C128.479 156.648 136.914 156.87 136.914 156.87C139.483 156.586 142.077 156.635 144.633 157.015C145.254 157.11 145.858 157.223 146.444 157.355C149.864 158.12 153.095 159.565 155.944 161.607C157.032 162.381 158.061 163.234 159.024 164.16C160.734 165.761 162.206 167.599 163.393 169.618Z" fill="#D0CDE1"/>
<path d="M167.808 173.497C167.683 173.613 167.559 173.725 167.435 173.84C164.829 176.222 162.098 178.464 159.254 180.556C157.346 181.968 155.388 183.308 153.379 184.577C152.938 184.858 152.494 185.134 152.047 185.406C151.272 185.879 150.49 186.341 149.701 186.793C148.672 187.385 147.629 187.958 146.574 188.512C146.148 188.74 145.719 188.959 145.29 189.178C144.663 189.5 144.032 189.811 143.396 190.116C143.287 190.169 143.177 190.222 143.068 190.272L141.817 189.234L156.515 171.269L159.47 167.657C159.47 167.657 160.651 167.657 163.358 169.627C164.854 170.741 166.268 171.961 167.589 173.278C167.66 173.352 167.734 173.423 167.808 173.497Z" fill="#D0CDE1"/>
<path d="M167.601 173.296C167.561 173.482 167.505 173.664 167.435 173.84C164.829 176.222 162.098 178.464 159.254 180.556C156.787 181.446 154.228 182.054 151.624 182.37C151.624 182.37 151.846 183.482 152.047 185.405C151.272 185.879 150.49 186.341 149.701 186.793C148.672 187.385 147.629 187.958 146.574 188.512C146.148 188.74 145.719 188.959 145.29 189.178C144.663 189.5 144.033 189.811 143.396 190.116C143.287 190.169 143.177 190.222 143.068 190.272C142.654 190.474 142.234 190.669 141.814 190.864C136.342 193.388 130.652 195.407 124.814 196.897C124.781 196.905 124.751 196.911 124.719 196.92C124.337 197.018 123.953 197.113 123.568 197.204C123.281 197.275 122.991 197.343 122.701 197.408C122.665 197.42 122.629 197.429 122.592 197.435C121.997 197.574 121.402 197.707 120.802 197.829C120.464 197.9 120.127 197.971 119.79 198.039C119.586 198.083 119.379 198.121 119.175 198.16C118.917 198.21 118.663 198.258 118.405 198.308C118.263 198.337 118.121 198.361 117.976 198.385C117.651 198.444 117.325 198.503 117.003 198.559C116.453 198.654 115.896 198.746 115.343 198.829C114.941 198.891 114.541 198.95 114.139 199.006C113.666 199.074 113.192 199.136 112.716 199.195C112.586 199.216 112.456 199.231 112.325 199.246C112.157 199.266 111.988 199.287 111.819 199.308C111.479 199.349 111.139 199.388 110.796 199.423C110.618 199.444 110.444 199.462 110.266 199.479C109.929 199.515 109.592 199.547 109.254 199.577C108.819 199.618 108.385 199.654 107.947 199.689C107.414 199.731 106.885 199.769 106.349 199.802C106.006 199.823 105.663 199.843 105.317 199.861C104.435 199.908 103.553 199.941 102.666 199.965C102.225 199.976 101.781 199.985 101.337 199.991H101.328C100.888 199.997 100.444 200 100 200C95.5026 200.002 91.0102 199.702 86.5532 199.101C83.284 198.663 80.067 198.069 76.9023 197.32C76.7751 197.29 76.6479 197.26 76.5236 197.228C76.2041 197.154 75.8875 197.074 75.571 196.994C75.2899 196.923 75.0118 196.849 74.7307 196.775C67.4871 194.89 60.48 192.192 53.8432 188.731C53.8106 188.713 53.7751 188.695 53.7426 188.678C53.5503 188.577 53.3609 188.479 53.1716 188.376C69.4112 184.592 95.0739 178.624 117.343 173.512C117.967 173.37 118.588 173.228 119.204 173.086C127.429 171.198 135.133 169.441 141.651 167.971C142.325 167.82 142.986 167.672 143.633 167.527C150.636 165.953 156.074 164.758 159.024 164.16C159.819 163.978 160.623 163.837 161.432 163.737L167.589 173.278L167.601 173.296Z" fill="#2F2E41"/>
<path d="M47.7659 75.3742C55.7583 75.3742 62.2373 68.8951 62.2373 60.9028C62.2373 52.9105 55.7583 46.4314 47.7659 46.4314C39.7736 46.4314 33.2946 52.9105 33.2946 60.9028C33.2946 68.8951 39.7736 75.3742 47.7659 75.3742Z" fill="#2F2E41"/>
<path d="M136.662 71.2397C144.654 71.2397 151.133 64.7606 151.133 56.7683C151.133 48.7759 144.654 42.2969 136.662 42.2969C128.669 42.2969 122.19 48.7759 122.19 56.7683C122.19 64.7606 128.669 71.2397 136.662 71.2397Z" fill="#2F2E41"/>
<path d="M121.157 50.5659C121.157 46.9967 122.477 43.5535 124.862 40.8981C127.247 38.2427 130.529 36.5624 134.077 36.1801C132.057 35.9593 130.012 36.1668 128.076 36.7891C126.141 37.4115 124.358 38.4346 122.845 39.7918C121.331 41.1491 120.121 42.81 119.292 44.6664C118.463 46.5227 118.035 48.5329 118.035 50.5659C118.035 52.5989 118.463 54.6091 119.292 56.4654C120.121 58.3218 121.331 59.9827 122.845 61.34C124.358 62.6972 126.141 63.7203 128.076 64.3426C130.012 64.965 132.057 65.1725 134.077 64.9517C130.529 64.5694 127.247 62.8891 124.862 60.2337C122.477 57.5783 121.157 54.1351 121.157 50.5659Z" fill="#2F2E41"/>
<path d="M31.5964 72.6086C29.0988 70.0588 27.6316 66.676 27.4767 63.1101C27.3219 59.5443 28.4903 56.047 30.7575 53.2903C29.1595 54.547 27.8441 56.1263 26.8973 57.9253C25.9504 59.7243 25.3932 61.7026 25.2619 63.7314C25.1307 65.7601 25.4284 67.7937 26.1356 69.6997C26.8428 71.6057 27.9437 73.3414 29.3665 74.7935C30.7893 76.2456 32.5021 77.3816 34.3933 78.1276C36.2845 78.8735 38.3116 79.2126 40.3426 79.1228C42.3736 79.033 44.3629 78.5162 46.1808 77.6062C47.9988 76.6962 49.6046 75.4134 50.8936 73.8413C48.0913 76.0518 44.5709 77.1487 41.0089 76.9211C37.4469 76.6936 34.0947 75.1577 31.5964 72.6086Z" fill="#2F2E41"/>
<path d="M92.2137 73.3069C75.0873 73.3069 61.2036 81.4057 61.2036 91.3961C61.2036 95.8663 63.9943 99.9517 68.6009 103.108L74.5707 98.7823L72.9473 105.559C73.6209 105.871 74.3087 106.173 75.0261 106.452L83.9444 96.0476V108.83C86.679 109.268 89.4442 109.487 92.2137 109.485C109.34 109.485 123.224 101.387 123.224 91.3961C123.224 81.4057 109.34 73.3069 92.2137 73.3069Z" fill="#2F2E41"/>
<path d="M122.19 56.7683C122.19 56.7683 119.943 67.105 133.987 71.2397L122.19 56.7683Z" fill="#2F2E41"/>
<path d="M61.2038 58.6494C61.2038 58.6494 66.3721 70.2058 50.8671 75.3741L61.2038 58.6494Z" fill="#2F2E41"/>
<path d="M68.8684 124.779C70.1724 124.414 70.5192 121.581 69.6431 118.452C68.767 115.322 66.9997 113.081 65.6958 113.446C64.3918 113.811 64.045 116.644 64.9211 119.774C65.7972 122.903 67.5645 125.144 68.8684 124.779Z" fill="#D0CDE1"/>
<path d="M128.572 114.36C128.772 111.116 127.838 108.419 126.487 108.336C125.135 108.253 123.878 110.815 123.678 114.058C123.478 117.302 124.412 119.999 125.763 120.082C127.115 120.166 128.372 117.604 128.572 114.36Z" fill="#D0CDE1"/>
</g>
<defs>
<clipPath id="clip0">
<rect width="200" height="200" fill="white"/>
</clipPath>
</defs>
</svg>
